PathFileType	4	(X/Y/Z)	Patient4_TMGait_0pt7_01_left_24.trc.trc
DataRate	CameraRate	NumFrames	NumMarkers	Units	OrigDataRate	OrigDataStartFrame	OrigNumFrames
84.848484848485	84.848484848485	6	33	mm	84.848484848485	71	       141
Frame#	Time	Sacral			L.Shoulder			Chest			R.Shoulder			Neck			R.ASIS			L.ASIS			R.Thigh.Superior			R.Thigh.Lateral			R.Thigh.Inferior			R.Patella			L.Thigh.Superior			L.Thigh.Lateral			L.Thigh.Inferior			L.Patella			L.Shank.Superior			L.Shank.Lateral			L.Shank.Inferior			R.Shank.Superior			R.Shank.Lateral			R.Shank.Inferior			R.Heel			R.Midfoot.Superior			R.Midfoot.Lateral			R.Toe			L.Heel			L.Midfoot.Lateral			L.Midfoot.Superior			L.Toe			L.Elbow			L.Wrist			R.Elbow			R.Wrist			
		X1	Y1	Z1	X2	Y2	Z2	X3	Y3	Z3	X4	Y4	Z4	X5	Y5	Z5	X6	Y6	Z6	X7	Y7	Z7	X8	Y8	Z8	X9	Y9	Z9	X10	Y10	Z10	X11	Y11	Z11	X12	Y12	Z12	X13	Y13	Z13	X14	Y14	Z14	X15	Y15	Z15	X16	Y16	Z16	X17	Y17	Z17	X18	Y18	Z18	X19	Y19	Z19	X20	Y20	Z20	X21	Y21	Z21	X22	Y22	Z22	X23	Y23	Z23	X24	Y24	Z24	X25	Y25	Z25	X26	Y26	Z26	X27	Y27	Z27	X28	Y28	Z28	X29	Y29	Z29	X30	Y30	Z30	X31	Y31	Z31	X32	Y32	Z32	X33	Y33	Z33	

71	28.435000000000	851.066595240217	1003.105021349180	440.424036713446	1059.273763435449	1413.802086725163	248.120100091639	1150.621846636240	1341.730544069326	414.603222957236	1069.253618741594	1432.357139126135	582.101360167995	1065.843606610062	1480.881241810586	398.383880458792	1071.736651316831	932.764720142889	565.685669042094	1068.992739615809	954.394859639518	289.124568841244	1140.537503714731	760.999918812120	550.401365782549	1090.966939507120	643.443300057760	630.276022524445	1182.349325640970	602.735375995189	555.405000663130	1213.561262804628	524.991342344727	575.083173868585	1066.671456539074	730.043044151961	315.482052650842	948.123822827848	637.690245166539	253.440630279000	1008.881674956891	542.371921747461	313.166042193584	992.958004806125	475.829355521005	321.677009159006	959.247815193049	410.511494746473	313.792913228833	853.182080988344	308.169625251192	266.186082648015	895.132295776196	190.588656548685	334.591307820295	1204.594807874598	436.654485829727	590.029595546916	1158.174822758679	323.827241856884	659.448076720389	1233.048923116150	239.222784000226	613.062682228780	1151.635517856330	48.111937530056	597.097736372742	1313.268502549706	127.267120413392	629.854745998025	1237.766565618225	50.832884763038	667.201539700854	1439.262569756979	94.938939375087	653.381521022596	757.778557898094	40.689880819942	385.571118616232	826.949091855530	35.554821016347	301.445669217993	912.016938585995	95.573619360371	323.269811180626	1038.305418541669	41.985779382178	288.246175133590	1051.843173241565	1083.711481423942	94.308838841278	1277.454117585735	958.107173644829	99.646615919006	935.584857783497	1133.750508233044	736.488390476363	939.163024901730	876.107574248914	789.564881551076	
72	28.446785714286	852.589274438483	1001.200911293401	443.543255864914	1059.226761157184	1412.249567848839	250.981061469241	1151.105746018683	1340.548045513026	417.084619274374	1069.637377878981	1430.979961463242	584.893461799768	1066.041453737954	1479.342501712203	401.174192847680	1073.531827820428	930.670066072903	568.381646103249	1070.112563795867	952.803102970523	292.006772344563	1141.316898162009	757.935916483496	553.414180756617	1089.623048897671	639.615552256916	631.034177927457	1181.705284863650	599.692602162581	556.887396312652	1211.246140003199	521.921389412469	575.090688399843	1065.763074944542	728.259450980375	317.589092188120	945.765498825855	637.390728129198	255.222127209007	1005.221677710752	541.217584171764	314.845817467624	988.644724429869	474.599306859949	323.053601207182	954.178251380789	409.774077028128	314.935033171230	847.011692732321	308.631869312978	267.080900814048	887.814060088338	190.319564626557	334.964390935540	1203.137163112381	433.179423389119	589.645293587143	1156.435285572916	319.608888882730	657.382766545962	1232.163419443780	235.809453082259	611.073542688494	1151.201219940272	45.689405196889	593.478410362663	1312.576904454570	124.064911499844	626.971037873391	1236.933089544691	48.076077689026	663.993855026490	1438.491712864452	91.352382865797	650.981465960749	749.450451004115	40.942211437890	385.458345770184	818.700766865876	35.635909301889	301.430319811858	903.817398264017	95.573635961987	323.297712853497	1030.063308902689	41.722344625560	288.226997042660	1051.340670793404	1082.693740922040	96.326850999659	1277.863586200978	959.144016615950	101.795589606073	932.784784275043	1134.401621263675	739.385544328250	934.569432269532	876.650837122528	791.820166205103	
73	28.458571428571	854.162096703939	999.274257605813	446.964717317758	1059.134747224214	1410.635451844805	254.003895197715	1151.655926420861	1339.402136653311	419.720467972128	1070.088170835783	1429.623099802886	587.864694931142	1066.262198978224	1477.812275415000	404.138823392320	1075.516640822950	928.551252635629	571.177323797189	1071.181558059648	951.174431361335	295.065745408240	1142.713365216692	755.042881505568	556.318220987978	1088.901670031323	635.944065526657	631.472020122654	1181.717520197316	596.904625585581	558.063570250784	1209.562010745877	518.720677664722	574.748938196166	1065.233451598623	726.550820951699	319.656386375491	943.855017206394	637.024368911846	257.140700657371	1002.244444996760	540.023828877861	316.535375805121	985.093067369509	473.198688382064	324.445580824596	949.700631792563	408.911781969771	316.124041695222	841.246558361721	309.178107590734	268.057662002742	880.703633574038	190.048426677465	335.344795558046	1201.835897196538	429.525475444359	588.987856580083	1154.296076575284	315.564551314262	655.228107435098	1230.140520912163	232.075960472304	608.923380165756	1148.102412998402	43.846757012280	589.967330420993	1309.801403641695	120.173671819227	623.996853550060	1233.434261023580	45.447751465645	660.948481103707	1435.381893753347	86.122642350619	648.664287865483	741.124665621726	41.354346682868	385.301852219111	810.478217497543	35.762659403473	301.392246328016	895.695212086522	95.592065814532	323.290699650558	1021.866142768191	41.418659976810	288.194486935170	1050.498811068761	1081.474821787584	98.735387848356	1277.704852856723	959.515192262936	104.146914262780	930.422111744623	1134.791089534761	742.318864139958	931.042264202384	876.854403475930	793.821981739964	
74	28.470357142857	855.723584740133	997.423097194884	450.627566360674	1059.060694576921	1409.031650199874	257.177822213112	1152.303391127725	1338.323693044733	422.522991982771	1070.665016104015	1428.335232373095	591.009135485949	1066.570237710293	1476.359795335364	407.274953074516	1077.614755835208	926.505780501831	574.049702454997	1072.192917774966	949.612339842734	298.263767631877	1144.632670003845	752.397827232054	559.037816134368	1088.808600294361	632.631608984300	631.714640810736	1182.267144715048	594.453734735842	558.943813231296	1208.471639851926	515.549862335695	574.164568864481	1065.099990319123	724.977210983564	321.687327432452	942.470535466953	636.590015863645	259.196081906692	1000.082216132345	538.808327113842	318.226009066578	982.454024825744	471.621711525074	325.820790256757	945.925929073442	407.926917547675	317.345590901440	835.973060438546	309.852254060512	269.121235278400	873.861826756990	189.815332334059	335.726272788802	1200.730337277819	425.901441835106	588.185463464538	1152.013536666825	311.868508930988	653.253194249672	1227.274706662746	228.244228104370	606.800313437770	1142.865028790825	42.567713943783	586.861776908599	1305.394102139502	115.882398778594	621.120205791965	1227.861465710028	43.049969740995	658.284093214082	1430.465292504931	79.749284253800	646.472984692351	732.818764957640	42.020958834777	385.100540158842	802.288230547450	35.973360600252	301.331409952192	887.691480187768	95.639006507387	323.228433248802	1013.718616080784	41.079532932947	288.148914404803	1049.298945188791	1080.103293338083	101.567241360459	1276.948941240082	959.226414774371	106.689845715020	928.614357368249	1134.899371939189	745.265767866813	928.578389867715	876.701380873173	795.598861303728	
75	28.482142857143	857.214227594852	995.756480891052	454.458642162227	1059.077402196525	1407.530282905307	260.488246859989	1153.077923818260	1337.352389431316	425.497290340623	1071.428564814529	1427.174692802914	594.313997655918	1067.036299873652	1475.065107800968	410.576009936707	1079.736673139278	924.650077888163	576.982146449508	1073.137536028512	948.224321643137	301.563011621949	1146.934932083757	750.104570907797	561.505731267393	1089.341466425823	629.890868764811	631.922446807807	1183.210752521017	592.432517595764	559.565592999077	1207.903859870305	512.591128426824	573.494106254538	1065.371577220020	723.605612113640	323.701026030001	941.693797444827	636.092764152492	261.384362020967	998.871794293712	537.600452566330	319.912587208196	980.880660109946	469.877882525347	327.140903506301	942.969229197119	406.836511976355	318.577954991991	831.286231393860	310.715208675283	270.272257281424	867.364502541309	189.681015652729	336.097075974440	1199.823263896706	422.525331699920	587.389043049338	1149.788846765747	308.698737562613	651.708904995181	1223.823059944775	224.558857669933	604.882973304929	1136.045258125772	41.808123254060	584.373263881686	1299.776366015578	111.535554249511	618.521972460096	1220.808724360760	40.981548008514	656.157368219299	1424.244569853062	72.857118467406	644.475565831631	724.564644890631	43.069269488817	384.856330015823	794.142879856108	36.328840205064	301.250057213855	879.859974671269	95.730537759912	323.086618449874	1005.621275610295	40.711881721291	288.091869565013	1047.718488704517	1078.650488186819	104.857702592589	1275.549409618035	958.293712446200	109.416824100939	927.479354811611	1134.723508631505	748.205214112024	927.192639911686	876.198257246774	797.170375635758	
76	28.493928571429	858.582972317848	994.385115445777	458.381114217860	1059.260807682868	1406.235328791257	263.916115148443	1154.003598067389	1336.533877563339	428.636951297345	1072.432389050296	1426.205658218858	597.758245470385	1067.728496906263	1474.010047625742	414.028500954231	1081.786521841618	923.106294389107	579.969331965029	1074.000264773719	947.108206398075	304.931484208831	1149.441403372345	748.280035087395	563.675672317410	1090.472676990941	627.907783034425	632.265246286162	1184.389679240465	590.924321206193	559.994586425532	1207.749506947134	510.016116786383	572.918727966121	1066.050881729146	722.504774980068	325.731115927708	941.609845200246	635.542222959726	263.696360005860	998.751618818138	536.438097909697	321.591669911525	980.523821501630	467.992187983406	328.363399883053	940.950648494238	405.670596466863	319.792497048064	827.293813951651	311.841022997169	271.504154980180	861.304892241650	189.724573430226	336.440108411388	1199.069458719919	419.587463756218	586.748315192927	1147.733526894842	306.199929648849	650.791168234118	1219.971307856550	221.242079872388	603.314321788956	1128.166105671844	41.488636527849	582.605981512161	1293.298465876228	107.470661188229	616.350116974903	1212.807498584567	39.312337866931	654.646137168873	1417.145489653544	66.093098071468	642.754396332465	716.412830211823	44.659886201680	384.573820540825	786.062496951822	36.917883686983	301.152126976427	872.267037174717	95.890538100883	322.839704231295	997.569331343462	40.322408507489	288.026178961437	1045.732345780147	1077.208090097352	108.639865385011	1273.444549823832	956.743467426832	112.325346296525	927.124970703449	1134.278859730529	751.118968161146	926.919023258677	875.373773804055	798.547284881905	
